<?xml version="1.0" encoding="iso-8859-1"?>
<!-- Generator: Adobe Illustrator 19.0.0, SVG Export Plug-In . SVG Version: 6.00 Build 0)  -->
<svg version="1.1" id="Layer_1" xmlns="http://www.w3.org/2000/svg" xmlns:xlink="http://www.w3.org/1999/xlink" x="0px" y="0px"
	 viewBox="0 0 512 512" style="enable-background:new 0 0 512 512; fill: #7FFF7F" xml:space="preserve">
<g>
	<g>
		<path d="M208.217,203.609c-2.07-2.07-4.942-3.261-7.869-3.261s-5.799,1.191-7.869,3.261c-2.07,2.07-3.261,4.942-3.261,7.869
			s1.191,5.799,3.261,7.869c2.07,2.07,4.942,3.261,7.869,3.261s5.799-1.191,7.869-3.261s3.261-4.942,3.261-7.869
			S210.287,205.679,208.217,203.609z"/>
	</g>
</g>
<g>
	<g>
		<path d="M400.696,0H111.304c-6.147,0-11.13,4.983-11.13,11.13v200.348V500.87c0,6.147,4.983,11.13,11.13,11.13h289.391
			c6.147,0,11.13-4.983,11.13-11.13V211.478V11.13C411.826,4.983,406.843,0,400.696,0z M389.565,200.348H233.739
			c-6.147,0-11.13,4.983-11.13,11.13s4.983,11.13,11.13,11.13h155.826v267.13h-267.13v-267.13h44.522
			c6.147,0,11.13-4.983,11.13-11.13s-4.983-11.13-11.13-11.13h-44.522V22.261h267.13V200.348z"/>
	</g>
</g>
<g>
	<g>
		<path d="M356.174,55.652h-32.835c-6.147,0-11.13,4.983-11.13,11.13v89.044c0,6.147,4.983,11.13,11.13,11.13h32.835
			c6.147,0,11.13-4.983,11.13-11.13V66.783C367.304,60.635,362.321,55.652,356.174,55.652z M345.043,144.696H334.47V77.913h10.574
			V144.696z"/>
	</g>
</g>
<g>
	<g>
		<path d="M355.896,244.87h-32.835c-6.147,0-11.13,4.983-11.13,11.13v89.043c0,6.147,4.983,11.13,11.13,11.13h32.835
			c6.147,0,11.13-4.983,11.13-11.13V256C367.026,249.853,362.043,244.87,355.896,244.87z M344.765,333.913h-10.574V267.13h10.574
			V333.913z"/>
	</g>
</g>
<g>
</g>
<g>
</g>
<g>
</g>
<g>
</g>
<g>
</g>
<g>
</g>
<g>
</g>
<g>
</g>
<g>
</g>
<g>
</g>
<g>
</g>
<g>
</g>
<g>
</g>
<g>
</g>
<g>
</g>
</svg>
