<?xml version="1.0" encoding="iso-8859-1"?>
<!-- Generator: Adobe Illustrator 19.0.0, SVG Export Plug-In . SVG Version: 6.00 Build 0)  -->
<svg version="1.1" id="Layer_1" xmlns="http://www.w3.org/2000/svg" xmlns:xlink="http://www.w3.org/1999/xlink" x="0px" y="0px"
	 viewBox="0 0 512 512" style="enable-background:new 0 0 512 512; fill: #7FFF7F" xml:space="preserve">
<g>
	<g>
		<g>
			<path d="M330.667,256h-53.333v-85.333c0-4.771-3.167-8.969-7.76-10.26c-4.583-1.26-9.49,0.604-11.99,4.667L172.25,303.74
				c-2.031,3.292-2.115,7.427-0.229,10.802c1.885,3.365,5.448,5.458,9.313,5.458h53.333v85.333c0,4.771,3.167,8.969,7.76,10.26
				c0.969,0.271,1.938,0.406,2.906,0.406c3.635,0,7.104-1.865,9.083-5.073L339.75,272.26c2.031-3.292,2.115-7.427,0.229-10.802
				C338.094,258.094,334.531,256,330.667,256z M256,367.646v-58.313c0-5.896-4.771-10.667-10.667-10.667h-44.906L256,208.354v58.313
				c0,5.896,4.771,10.667,10.667,10.667h44.906L256,367.646z"/>
			<path d="M384,64h-42.667V10.68c0-5.904-4.063-10.68-9.958-10.68H181.333c-5.896,0-10.667,4.776-10.667,10.68V64H128
				c-23.521,0-42.667,18.62-42.667,42.18v363.102C85.333,492.841,104.479,512,128,512h256c23.521,0,42.667-19.159,42.667-42.719
				V106.18C426.667,82.62,407.521,64,384,64z M192,21.333h128V64H192V21.333z M405.333,469.333c0,11.76-9.563,21.333-21.333,21.333
				H128c-11.771,0-21.333-9.573-21.333-21.333V106.667c0-11.76,9.563-21.333,21.333-21.333h256c11.771,0,21.333,9.573,21.333,21.333
				V469.333z"/>
		</g>
	</g>
</g>
<g>
</g>
<g>
</g>
<g>
</g>
<g>
</g>
<g>
</g>
<g>
</g>
<g>
</g>
<g>
</g>
<g>
</g>
<g>
</g>
<g>
</g>
<g>
</g>
<g>
</g>
<g>
</g>
<g>
</g>
</svg>
